<svg id="Layer_1" width="262" height="211" viewBox="0 0 100 100" xmlns="http://www.w3.org/2000/svg" xmlns:xlink="http://www.w3.org/1999/xlink"><linearGradient id="lg1"><stop offset="0" stop-color="#97e0ff"/><stop offset="1" stop-color="#4f80b2"/></linearGradient><linearGradient id="SVGID_1_" gradientUnits="userSpaceOnUse" x1=".09" x2="92.106" xlink:href="#lg1" y1="-4.979" y2="95.861"/><linearGradient id="SVGID_00000132057644283809410970000002302709980315340460_" gradientUnits="userSpaceOnUse" x1="-25.959" x2="66.058" xlink:href="#lg1" y1="18.79" y2="119.63"/><linearGradient id="SVGID_00000161633261838581769820000015098542478138188938_" gradientUnits="userSpaceOnUse" x1="7.523" x2="99.54" xlink:href="#lg1" y1="-11.762" y2="89.078"/><g><path d="m55.4500008 56.3999977v41.0999947h31.4000053c4.0999985 0 7.4000015-3.3000031 7.4000015-7.4000015v-33.6999932z" fill="url(#SVGID_1_)"/><path d="m44.4499512 56.3999023v41.1000977h-31.3999033c-4.1000977 0-7.4000244-3.3000488-7.4000244-7.4000244v-33.7000733z" fill="url(#SVGID_00000132057644283809410970000002302709980315340460_)"/><path d="m89.25 30.5h-13.9000244c1.9000244-.9000244 3.5-1.9000244 4.5-2.8000488 5.7000732-5.6999512 5.7000732-14.999939 0-20.6999512-2.9000244-2.9000244-6.5999756-4.2999878-10.2999268-4.2999878-3.7000732 0-7.5 1.3999634-10.3000488 4.2999878-2.4000244 2.3999634-4.6999512 8.2000122-6.5 14.2999878-.9000244-.2999878-1.8000488-.5-2.8000488-.5-.8999023 0-1.7999268.2000122-2.6999512.4000244-1.9000244-6.1000366-4.1999512-12-6.5999756-14.4000244-2.9000244-2.9000244-6.5999756-4.2999878-10.3000488-4.2999878-3.6999512 0-7.5 1.3999634-10.2999268 4.2999878-5.7000742 5.7000122-5.7000742 15 0 20.7000122 1 1 2.6999512 2 4.7999268 3h-14.1999521c-4.0999756 0-7.4000244 3.3000488-7.4000244 7.3999023v3.3000488c0 4.1000977 3.3000491 7.4000244 7.4000244 7.4000244h33.7999268v-17.7999267h11.1000977v17.6999512h33.7999268c4.0999764 0 7.4000252-3.3000488 7.4000252-7.4000244v-3.2999268c-.0999756-4-3.4000244-7.3000488-7.5-7.3000488zm-49-2.5c-7.4000244-2.1000977-13.4000244-4.2999878-15-5.7999878-2.8000488-2.8000488-2.8000488-7.4000244 0-10.2000122 1.4000244-1.4000244 3.1999512-2.1000366 5.0999756-2.1000366s3.8000488.8000488 5.0999756 2.1000366c1.4000244 1.5 3.5 7.0999756 5.6000977 14.0999756-.3000489.5999756-.6000977 1.2000732-.8000489 1.9000244zm19.5.1999512c-.1999512-.6999512-.5-1.3999023-.8000488-2 2-6.999939 4.1000977-12.5999756 5.5-13.999939 1.4000244-1.4000244 3.2000732-2.1000366 5.1000977-2.1000366 1.8999023 0 3.7999268.7999878 5.0999756 2.1000366 1.4000243 1.3999634 2.0999755 3.1999512 2.0999755 5.0999756s-.8000488 3.7000122-2.0999756 5.0999756c-1.5 1.4000244-7.5 3.7000122-14.9000244 5.7999878z" fill="url(#SVGID_00000161633261838581769820000015098542478138188938_)"/></g></svg>