<svg id="Layer_1" width="45" height="45" viewBox="0 0 100 100" xmlns="http://www.w3.org/2000/svg" xmlns:xlink="http://www.w3.org/1999/xlink"><linearGradient id="lg1"><stop offset="0" stop-color="#97e0ff"/><stop offset="1" stop-color="#4f80b2"/></linearGradient><linearGradient id="SVGID_1_" gradientUnits="userSpaceOnUse" x1="-10.499" x2="75.113" xlink:href="#lg1" y1="3.265" y2="100.387"/><linearGradient id="SVGID_00000039127909628992260620000009465417042184889750_" gradientUnits="userSpaceOnUse" x1="10.202" x2="95.814" xlink:href="#lg1" y1="-14.983" y2="82.139"/><path d="m17.5764961 53.7430611v36.3089714c0 4.1039505 3.3440189 7.4479675 7.4479675 7.4479675h49.9510689c4.1039505 0 7.4479675-3.344017 7.4479675-7.4479675v-36.3089714c0-4.1040649-3.344017-7.4479675-7.4479675-7.4479675h-49.9510688c-4.1039486-.0000001-7.4479676 3.3439025-7.4479676 7.4479675zm32.4139939 7.0869636c4.3509598 0 7.8850479 3.5339737 7.8850479 7.8660278 0 2.1849289-.8930626 4.2369614-2.4320564 5.7189026l1.0639954 6.3460464c.0949783.5509644-.0569382 1.1210556-.4179459 1.5390015-.3610039.4180603-.8930588.6649475-1.4630356.6649475h-9.2720108c-.5509567 0-1.0830116-.2468872-1.4440155-.6649475-.3610077-.4179459-.5130386-.9880371-.4179459-1.5390015l1.0639954-6.3460464c-1.5389938-1.4819412-2.4320564-3.5339737-2.4320564-5.7189026-.0000001-4.3320541 3.5339736-7.8660278 7.8660278-7.8660278z" fill="url(#SVGID_1_)"/><path d="m74.6904907 42.4950943v-15.2950935c0-6.6119633-2.5649567-12.8250008-7.2199783-17.479908-4.6740418-4.6550231-10.8680573-7.2200928-17.4800224-7.2200928-13.6039467 0-24.6809788 11.0770321-24.6809788 24.7000008v15.2950935h14.0979671v-15.3141136c0-5.8328972 4.75-10.5828972 10.5830116-10.5828972 5.8520317 0 10.6020317 4.75 10.6020317 10.5828972v15.3141136z" fill="url(#SVGID_00000039127909628992260620000009465417042184889750_)"/></svg>