<svg id="Layer_1" width="45" height="45" viewBox="0 0 100 100" xmlns="http://www.w3.org/2000/svg" xmlns:xlink="http://www.w3.org/1999/xlink"><linearGradient id="SVGID_1_" gradientUnits="userSpaceOnUse" x1="-.051" x2="91.965" y1="-4.851" y2="95.99"><stop offset="0" stop-color="#97e0ff"/><stop offset="1" stop-color="#4f80b2"/></linearGradient><path d="m52.375 2.5000012h38c3.9332428.0043194 7.1206818 3.1917617 7.125 7.125v38h-14.3184052c.0453415-.3942146.0681763-.7906914.0684052-1.1875 0-5.9025421-4.7849503-10.6875-10.6875-10.6875-5.9025421 0-10.6875 4.7849579-10.6875 10.6875.0002251.3968086.0230637.7932854.0683975 1.1875h-9.5683975v-12.7062504c.0001869-1.311676-1.0629845-2.3751526-2.3746605-2.3753395-.3545265-.0000534-.704567.0792694-1.0244408.2321396-.7904319.3877677-1.6580009.5926513-2.5383987.5994491-3.2791939 0-5.9375-2.6583099-5.9375-5.9375s2.6583061-5.9375 5.9375-5.9375c.8803253.0065041 1.7478943.2110596 2.5383987.5984993 1.1834679.5655937 2.601368.0647106 3.1669579-1.1187572.1527367-.3195858.2320518-.6692848.2321434-1.0234909zm-32.4187489 45.1249988c1.3116779.0001259 2.374897 1.0635529 2.374773 2.3752251-.0000305.3538895-.0791512.7033043-.2315731 1.0226898-.3875961.7909088-.5924644 1.6588325-.599451 2.5395851 0 3.2791939 2.6583099 5.9375 5.9375 5.9375s5.9375-2.6583061 5.9375-5.9375c-.006691-.8806801-.2112312-1.7485962-.5985031-2.5395851-.5649376-1.1837807-.0632668-2.6013985 1.1205139-3.1663399.3190956-.1522827.6681671-.2313995 1.02174-.231575h12.7062492v-9.5695877c-.3941383.0463524-.7906494.0695915-1.1875.0695877-5.9025421 0-10.6875-4.7849579-10.6875-10.6875s4.7849579-10.6875 10.6875-10.6875c.3968506-.0000038.7933617.0232296 1.1875.0695877v-14.3195865h-38c-3.933238.0043194-7.1206808 3.1917617-7.125 7.125v38h17.4562511zm27.6687489 32.4187546c-.0001907-1.311676 1.0629807-2.3751526 2.3746567-2.3753433.3545265-.0000534.7045708.0792694 1.0244446.2321396.7904472.3877181 1.6580123.5925903 2.5383987.5994491 3.2791939 0 5.9375-2.6583099 5.9375-5.9375s-2.6583061-5.9375-5.9375-5.9375c-.8803139.0065613-1.7478714.211113-2.5383987.5985031-1.1834679.5655975-2.601368.0647125-3.1669579-1.1187592-.1527367-.3195801-.2320518-.6692886-.2321434-1.0234909v-12.706253h-9.5683975c.0453339.3942146.0681725.7906914.0683975 1.1875 0 5.9025421-4.7849579 10.6875-10.6875 10.6875s-10.6875-4.7849579-10.6875-10.6875c.000227-.3968086.0230618-.7932854.0683994-1.1875h-14.3184006v38c.0043194 3.9332428 3.1917622 7.1206818 7.125 7.125h38v-17.4562454zm32.4187546-27.6687546c-1.311676-.0001221-2.3749008-1.0635452-2.3747711-2.3752213.0000229-.3538933.0791473-.7033081.2315674-1.0226936.387619-.790905.5924911-1.6588325.5994491-2.5395851 0-3.2791939-2.6583099-5.9375-5.9375-5.9375s-5.9375 2.6583061-5.9375 5.9375c.0066681.8806801.2112122 1.7486076.5985031 2.5395851.5649414 1.1837845.0632706 2.6013985-1.1205139 3.1663399-.3190994.1522827-.6681671.2313995-1.0217361.231575h-12.7062531v9.5695877c.3941383-.0463524.7906494-.0695915 1.1875-.0695877 5.9025421 0 10.6875 4.7849579 10.6875 10.6875 0 5.9025497-4.7849579 10.6875-10.6875 10.6875-.3968506 0-.7933617-.0232315-1.1875-.0695877v14.3195877h38c3.9332428-.0043182 7.1206818-3.1917572 7.125-7.125v-38z" fill="url(#SVGID_1_)"/></svg>