<svg id="Layer_1" width="100" height="100" viewBox="0 0 100 100" xmlns="http://www.w3.org/2000/svg" xmlns:xlink="http://www.w3.org/1999/xlink"><linearGradient id="SVGID_1_" gradientUnits="userSpaceOnUse" x1="4.731" x2="96.748" y1="-9.215" y2="91.626"><stop offset="0" stop-color="#97e0ff"/><stop offset="1" stop-color="#4f80b2"/></linearGradient><path d="m89.4250183 13.3674068c-25.70755-1.8280582-38.4750557-10.5219669-38.6045532-10.608326-.4894333-.3454406-1.1514969-.3454406-1.6409302 0-.1294975.08636-12.8970032 8.7802677-38.604557 10.608326-.7484255.0431356-1.3386259.6764727-1.3386259 1.4249859v32.487133c0 22.296196 15.113636 42.1166763 37.5825577 49.3424683.9212341.2878036 1.8424644.5612946 2.7924271.8203735.1295842.0432282.2590779.0576325.3886632.0576325s.259079-.0144043.3886642-.0576324c.9499626-.259079 1.8711929-.5325699 2.7924271-.8203735 22.4689179-7.225792 37.5825577-27.0462724 37.5825577-49.3424683v-32.487133c0-.7485133-.5902023-1.3818503-1.3386307-1.424986zm-30.8294182 49.2605763c.1366425.5860367 0 1.1917458-.3711777 1.6605759-.3711777.4492722-.9377785.7227936-1.5238152.7227936h-13.4012145c-.5860367 0-1.1526375-.2735214-1.5238152-.7227936-.3711777-.4688301-.5078201-1.0745392-.3711777-1.6605759l2.6373444-11.9946098c-1.6995659-1.6214676-2.6958885-3.8876343-2.6958885-6.2708893 0-4.7666283 3.887516-8.6541443 8.6541443-8.6541443s8.6541443 3.887516 8.6541443 8.6541443c0 2.383255-.9963226 4.6494217-2.6958885 6.2708893z" fill="url(#SVGID_1_)"/></svg>