<svg id="Layer_1" width="100" height="100" viewBox="0 0 100 100" xmlns="http://www.w3.org/2000/svg" xmlns:xlink="http://www.w3.org/1999/xlink"><linearGradient id="lg1"><stop offset="0" stop-color="#97e0ff"/><stop offset="1" stop-color="#4f80b2"/></linearGradient><linearGradient id="SVGID_1_" gradientUnits="userSpaceOnUse" x1="-2.021" x2="97.6" xlink:href="#lg1" y1="-7.544" y2="103.441"/><linearGradient id="SVGID_00000139278279283793056080000014141106260009938873_" gradientUnits="userSpaceOnUse" x1="-2.022" x2="97.6" xlink:href="#lg1" y1="-7.543" y2="103.442"/><linearGradient id="SVGID_00000175311124236648274540000017191574843852255389_" gradientUnits="userSpaceOnUse" x1=".268" x2="99.889" xlink:href="#lg1" y1="-9.598" y2="101.386"/><g clip-rule="evenodd" fill-rule="evenodd"><path d="m46.3846588 25.0037518c-11.8634377 0-21.3807411 9.5131664-21.3807411 21.380743 0 11.8634377 9.5131683 21.3807411 21.3807411 21.3807411 1.5472984 0 3.0520401-.1700287 4.5057564-.4760818l-8.9137917-18.8180542c-1.9638519-4.1402321 2.3549538-8.4589272 6.4951859-6.495182l18.8180542 8.9137917c.3103027-1.4537125.4760818-2.9542198.4760818-4.5057564 0-11.8634377-9.5131645-21.3807392-21.3807411-21.3807392z" fill="url(#SVGID_1_)"/><path d="m46.3846588 2.5c-24.2927322 0-43.8844879 19.5917568-43.8844879 43.884491s19.5917549 43.884491 43.8844872 43.884491c4.9989204 0 9.7937012-.8416519 14.2650719-2.371933l-5.513202-11.6468888c-2.779995.8203888-5.7129898 1.2667618-8.7523003 1.2667618-17.1346264 0-31.132-13.9973755-31.132-31.1320038s13.9973764-31.1320038 31.132-31.1320038 31.132 13.9973783 31.132 31.1320038c0 3.0393105-.4463272 5.9723091-1.2667618 8.7523041l11.6468887 5.5131989c1.5302124-4.4718018 2.371933-9.2665863 2.371933-14.2650719 0-24.2927341-19.5874023-43.884491-43.884491-43.884491z" fill="url(#SVGID_00000139278279283793056080000014141106260009938873_)"/><path d="m56.6419258 56.6417618 19.3534432 40.8582382 3.5918884-14.3717117c.4378281-1.7428436 1.7980118-3.1073227 3.5408554-3.545105l14.3717194-3.5918884z" fill="url(#SVGID_00000175311124236648274540000017191574843852255389_)"/></g></svg>