<svg id="Layer_1" width="45" height="45" viewBox="0 0 100 100" xmlns="http://www.w3.org/2000/svg" xmlns:xlink="http://www.w3.org/1999/xlink"><linearGradient id="lg1"><stop offset="0" stop-color="#97e0ff"/><stop offset="1" stop-color="#4f80b2"/></linearGradient><linearGradient id="SVGID_1_" gradientUnits="userSpaceOnUse" x1="-1.969" x2="90.048" xlink:href="#lg1" y1="-3.101" y2="97.739"/><linearGradient id="SVGID_00000088812000063361224270000002859243086099618452_" gradientUnits="userSpaceOnUse" x1="15.191" x2="107.208" xlink:href="#lg1" y1="-18.759" y2="82.081"/><path d="m63.9261818 60.2442017v-6.9990349c0-6.0792809 4.9458504-11.0251312 11.12817-11.0251312h17.8104858v-7.102066c0-2.988121-2.4729233-5.5640831-5.5640869-5.5640831h-68.417614c-2.9881201 0-5.3580074-2.4729252-5.3580074-5.3580055s2.4729261-5.3580074 5.3580074-5.3580074h61.1973228c2.988121 0 5.5640869-2.4729252 5.5640869-5.5640831 0-2.9881191-2.4729233-5.5640841-5.5640869-5.5640841h-61.1973228c-9.0673962 0-16.3831348 7.4187784-16.3831348 16.4861755v53.8750791c0 7.8309402 6.388392 14.2193298 14.2193241 14.2193298h62.029232c7.8309326 0 14.2193222-6.388382 14.2193222-14.2193298v-6.9046707h-17.9135284c-6.079277.103035-11.12817-4.842804-11.12817-10.9220886z" fill="url(#SVGID_1_)"/><path d="m97.5 53.2490959v6.890213c0 2.4755554-1.9597549 4.4353752-4.4249878 4.4353752h-18.0198212c-2.4754944 0-4.4353104-1.9598198-4.4353104-4.4353752v-6.890213c0-2.4754944 1.959816-4.4353104 4.4353104-4.4353104h18.0198212c2.4652329.0000001 4.4249878 2.0629387 4.4249878 4.4353104z" fill="url(#SVGID_00000088812000063361224270000002859243086099618452_)"/></svg>