<svg id="Layer_1" width="100" height="100" viewBox="0 0 100 100" xmlns="http://www.w3.org/2000/svg" xmlns:xlink="http://www.w3.org/1999/xlink"><linearGradient id="lg1"><stop offset="0" stop-color="#97e0ff"/><stop offset="1" stop-color="#4f80b2"/></linearGradient><linearGradient id="SVGID_1_" gradientUnits="userSpaceOnUse" x1="5.628" x2="97.645" xlink:href="#lg1" y1="-10.033" y2="90.807"/><linearGradient id="SVGID_00000108304176358817572900000004043903872230550167_" gradientUnits="userSpaceOnUse" x1="-3.547" x2="88.47" xlink:href="#lg1" y1="-1.661" y2="99.179"/><linearGradient id="SVGID_00000176036997908763385300000011597581086534448518_" gradientUnits="userSpaceOnUse" x1="-12.514" x2="79.502" xlink:href="#lg1" y1="6.522" y2="107.362"/><path d="m4.9859948 32.5805969c-3.3146577 3.3146591-3.3146658 8.6887894 0 12.0034485 3.3146577 3.3146553 8.6887817 3.3146553 12.0034409 0 18.2162151-18.2247677 47.7574615-18.2316914 65.9822311-.0154839.0051575.0051613.0103226.0103226.01548.0154839 1.5835724 1.5930519 3.7343216 2.4930191 5.9805145 2.5024834 4.6849442.0272484 8.5049515-3.748558 8.532196-8.4335022.0132675-2.2790375-.8910828-4.4675484-2.5092621-6.0724297-24.8381599-24.8540811-65.1216777-24.8669924-89.9757598-.0288315-.0096188.0096093-.0192299.0192223-.0288406.0288315z" fill="url(#SVGID_1_)"/><path d="m23.0123615 50.5645561c-3.5584888 3.0473976-3.9728031 8.4025345-.9253998 11.9610252 3.0474033 3.5584869 8.4025326 3.9728088 11.9610233.9253998.3318367-.2841682.6412239-.5935631.9253998-.9253998 8.2715645-8.292511 21.699398-8.3094826 29.991909-.0379105.0126495.012619.0252838.0252571.0379105.0379105 3.0473938 3.5584869 8.4025345 3.9728088 11.9610214.9253998 3.5584869-3.0473976 3.9728165-8.4025345.9253998-11.9610252-.2841721-.3318329-.5935669-.6412277-.9253998-.9253998-14.9038162-14.8852882-39.0480384-14.8852882-53.9518642 0z" fill="url(#SVGID_00000108304176358817572900000004043903872230550167_)"/><circle cx="49.988" cy="75.018" fill="url(#SVGID_00000176036997908763385300000011597581086534448518_)" r="11.05"/></svg>